<svg xmlns="http://www.w3.org/2000/svg" xmlns:xlink="http://www.w3.org/1999/xlink" version="1.1" x="0px" y="0px" viewBox="0 0 64 80" style="enable-background:new 0 0 64 64;" xml:space="preserve"><g><path d="M63.03,34.73h-8.57c-0.25,0-0.49,0.1-0.67,0.27l-4.48,4.28H38.47V35.7V17.77c0-0.54-0.43-0.97-0.97-0.97h-1.27   c2.69-1.29,4.34-3.75,4.34-6.86c0-4.85-3.95-8.8-8.8-8.8c-4.84,0-8.78,3.95-8.78,8.8c0,0.54,0.43,0.97,0.97,0.97h0.37v1.52   c0,1.62,0.47,3.13,1.33,4.36H14.53c-1.61,0-2.91,1.31-2.91,2.91c0,1.49,1.13,2.71,2.57,2.88l-1.93,5.09   c-0.74-0.96-1.9-1.59-3.2-1.59H5.19c-0.54,0-0.97,0.43-0.97,0.97v6.2c0,0.54,0.43,0.97,0.97,0.97h3.87c0.26,0,0.51-0.03,0.76-0.08   L5.38,45.89C2.17,47.7,0,51.13,0,55.06c0,0.54,0.43,0.97,0.97,0.97h3.3c0.02,3.76,3.08,6.82,6.85,6.82c3.77,0,6.83-3.05,6.85-6.82   h3.3h10.68h9.68c0.02,3.76,3.08,6.82,6.85,6.82s6.83-3.05,6.85-6.82h3.27c0.54,0,0.97-0.43,0.97-0.97v-9.64   c0-3.39-2.76-6.14-6.14-6.14h-1.31l2.73-2.61h8.18c0.54,0,0.97-0.43,0.97-0.97S63.57,34.73,63.03,34.73z M25,8.98   c0.47-3.32,3.32-5.89,6.77-5.89c3.78,0,6.86,3.08,6.86,6.86c0,3.66-2.77,5.34-5.49,5.78V9.95c0-0.54-0.43-0.97-0.97-0.97H25z    M31.19,10.92v5.89h-2.88c-0.14-0.09-0.33-0.24-0.57-0.49c-0.96-0.99-1.48-2.36-1.48-3.87v-1.52H31.19z M9.06,32.3h-2.9v-4.26h2.9   c1.17,0,2.13,0.96,2.13,2.13c0,0.24-0.05,0.47-0.12,0.68l-0.08,0.2C10.65,31.79,9.91,32.3,9.06,32.3z M12.78,31.8   c0.02-0.05,0.04-0.11,0.06-0.16l3.4-9h2.71l-8.28,21.9h-0.14c-0.94,0-1.84,0.13-2.7,0.36L12.78,31.8z M19.34,47.83   c-1.7-1.79-4.02-2.99-6.61-3.24l8.3-21.95h5.56v6.3h-4.09c-1.07,0-2.07,0.43-2.81,1.2c-0.74,0.77-1.12,1.79-1.07,2.86L19.34,47.83z    M11.12,60.91c-2.7,0-4.89-2.19-4.91-4.88h1.22c0.43,1.64,1.92,2.86,3.69,2.86c1.77,0,3.24-1.22,3.68-2.86h1.23   C16.01,58.73,13.82,60.91,11.12,60.91z M9.51,56.03h3.21c-0.33,0.55-0.92,0.92-1.6,0.92C10.44,56.95,9.84,56.58,9.51,56.03z    M13.99,54.09c-0.01,0-0.01,0-0.02,0s-0.01,0-0.02,0H8.28c-0.01,0-0.01,0-0.02,0c-0.01,0-0.01,0-0.02,0H1.99   c0.48-4.28,4.13-7.62,8.54-7.62h0.8c0.01,0,0.01,0,0.02,0c0.01,0,0.01,0,0.02,0h0.35c4.41,0,8.05,3.34,8.54,7.62H13.99z    M20.57,32.9c-0.03-0.54,0.16-1.04,0.53-1.43c0.37-0.39,0.87-0.6,1.4-0.6h5.06c0.54,0,0.97-0.43,0.97-0.97v-8.24   c0-0.54-0.43-0.97-0.97-0.97H14.53c-0.54,0-0.97-0.44-0.97-0.97c0-0.54,0.44-0.98,0.97-0.98h22v15.98h-7.96   c-2.14,0-3.88,1.74-3.88,3.88v11.03h-3.33L20.57,32.9z M30.98,54.09h-8.79c-0.08-0.87-0.27-1.71-0.56-2.51h9.35V54.09z    M30.98,49.64h-4.35v-8.42h4.35V49.64z M26.63,39.28v-0.67c0-1.07,0.87-1.94,1.94-1.94h7.96v2.61h-4.58H26.63z M48.48,60.91   c-2.7,0-4.89-2.19-4.91-4.88h1.22c0.43,1.64,1.92,2.86,3.69,2.86c1.77,0,3.24-1.22,3.68-2.86h1.23   C53.37,58.73,51.18,60.91,48.48,60.91z M46.87,56.03h3.21c-0.33,0.55-0.92,0.92-1.6,0.92C47.8,56.95,47.2,56.58,46.87,56.03z    M53.43,41.22c2.32,0,4.2,1.89,4.2,4.2v8.67h-6.29c-0.01,0-0.01,0-0.02,0c-0.01,0-0.01,0-0.02,0h-5.68c-0.01,0-0.01,0-0.02,0   c-0.01,0-0.01,0-0.02,0H32.92V41.22H53.43z"/><path d="M63.03,7.97h-7.77h-4.22h-8.29c-0.54,0-0.97,0.43-0.97,0.97V31.1c0,0.54,0.43,0.97,0.97,0.97h20.28   c0.54,0,0.97-0.43,0.97-0.97V8.94C64,8.41,63.57,7.97,63.03,7.97z M52.01,9.91h2.28v9.36h-2.28V9.91z M43.72,9.91h6.35v4.68h-6.35   V9.91z M62.06,30.13H43.72V16.53h6.35v3.71c0,0.54,0.43,0.97,0.97,0.97h4.22c0.54,0,0.97-0.43,0.97-0.97V9.91h5.83V30.13z"/></g><text x="0" y="79" fill="#000000" font-size="5px" font-weight="bold" font-family="'Helvetica Neue', Helvetica, Arial-Unicode, Arial, Sans-serif">Created by Rank Sol</text><text x="0" y="84" fill="#000000" font-size="5px" font-weight="bold" font-family="'Helvetica Neue', Helvetica, Arial-Unicode, Arial, Sans-serif">from the Noun Project</text></svg>