<svg xmlns="http://www.w3.org/2000/svg" xmlns:xlink="http://www.w3.org/1999/xlink" version="1.1" x="0px" y="0px" viewBox="0 0 100 125" style="enable-background:new 0 0 100 100;" xml:space="preserve"><path d="M25.3,84.6c1.9,0,3.5-1.5,3.5-3.4c0,0,0,0,0,0V60.4h45c1.9,0,3.5-1.5,3.5-3.4c0,0,0,0,0,0V29.2c0-1.9-1.6-3.5-3.5-3.5h-45  v-6.9c0-1.9-1.5-3.5-3.5-3.5c-1.9,0-3.5,1.5-3.5,3.5v62.3C21.9,83.1,23.4,84.6,25.3,84.6z M28.8,43.1h10.4V32.7h10.4v10.4h10.4V32.7  h10.4v10.4H59.9v10.4H49.5V43.1H39.2v10.4H28.8V43.1z"/><text x="0" y="115" fill="#000000" font-size="5px" font-weight="bold" font-family="'Helvetica Neue', Helvetica, Arial-Unicode, Arial, Sans-serif">Created by Pawel Rak</text><text x="0" y="120" fill="#000000" font-size="5px" font-weight="bold" font-family="'Helvetica Neue', Helvetica, Arial-Unicode, Arial, Sans-serif">from the Noun Project</text></svg>