<svg xmlns="http://www.w3.org/2000/svg" version="1.1" viewBox="-5.0 -10.0 110.0 135.0">
 <path d="m93.051 59.637c-1.9492-1.6758-5.3789-1.9492-8.6367 1.2227-1.2266 1.1875-2.75 2.332-4.3945 3.3984-0.70703-0.71875-1.5938-1.1797-2.6445-1.3672-3.1523-0.56641-6.9883 1.5391-8.6445 2.5781-0.10547-0.14062-0.21484-0.27344-0.32422-0.39453-1.2461-1.3789-3.8438-1.3555-7.4414-1.3281-3.4531 0.03125-7.7539 0.066406-11.535-1.2891-7.9375-2.8398-14.633-1.8125-21.062 3.2266-4.5977 3.6055-8.4297 4.9062-9.9492 5.3125l-1.2578-2.8281c-0.21094-0.47266-0.76562-0.69141-1.2383-0.48828l-9.8984 4.2148c-0.48047 0.20703-0.70703 0.76562-0.5 1.2461 0.20703 0.48438 0.76562 0.70703 1.2461 0.5l9.0352-3.8516 9.5859 21.516-9.2812 4.3867c-0.47266 0.22266-0.67578 0.78906-0.45312 1.2656 0.16406 0.34375 0.50391 0.54297 0.85938 0.54297 0.13672 0 0.27344-0.027344 0.40625-0.089844l10.117-4.7812c0.46875-0.21875 0.67188-0.77344 0.46484-1.2422l-1.0312-2.3164c2.375-1.168 9.3086-4.5234 11.754-5.1484 1.3008-0.33203 5.4062 0.36328 9.375 1.0352 4.7695 0.80859 9.7031 1.6445 12.688 1.3516 5.7656-0.5625 11.68-4.3828 17.395-8.082l0.054687-0.035156c8.1406-5.2617 14.422-11.301 16.285-13.906 0.98047-1.3672 0.57031-3.3242-0.97266-4.6484zm-16.008 5.125c0.49609 0.089843 0.92188 0.26953 1.2891 0.54297-2.9609 1.7539-6.0859 3.2266-8.4062 4.2422 0.14453-0.82812 0.015625-1.6602-0.26562-2.4141 1.4062-0.89062 4.8398-2.832 7.3828-2.3711zm15.438-1.582c-1.3945 1.9531-7.0859 7.8008-15.77 13.418l-0.058594 0.035156c-5.5234 3.5703-11.238 7.2656-16.547 7.7852-2.7344 0.26562-7.7578-0.58594-12.188-1.3359-5.25-0.89062-8.5469-1.4141-10.16-1.0039-2.6289 0.67188-9.5742 4.0312-12.062 5.2539l-6.4922-14.578c1.8594-0.52734 5.7266-1.9609 10.336-5.5742 5.8672-4.5977 11.984-5.5312 19.246-2.9297 4.1016 1.4688 8.5898 1.4297 12.195 1.4023 2.6289-0.019532 5.3398-0.042969 6.0156 0.70312 0.78516 0.86719 1.3789 2.2188 0.9375 3.2812-0.48828 1.1719-2.2344 1.8828-4.9102 2-7.1328 0.3125-16.07 0.003906-16.16 0-0.51562-0.019531-0.96484 0.39062-0.98438 0.91406-0.015625 0.52734 0.39453 0.96875 0.91797 0.98438 0.0625 0.003906 4.0625 0.14062 8.8555 0.14062 2.418 0 5.0352-0.035156 7.4531-0.14062 1.6406-0.070312 2.8906-0.33984 3.8438-0.72266 0.007812-0.003906 0.019531-0.003906 0.027343-0.007812 0.38672-0.14063 7.1719-2.6719 13.105-6.332 0.10547-0.027344 0.20703-0.066406 0.30469-0.12891 0.074219-0.054688 0.13672-0.11719 0.19141-0.18359 1.9141-1.2109 3.7148-2.5391 5.1562-3.9375 2.5625-2.4922 4.875-2.1758 6.0742-1.1445 0.76953 0.66016 1.0586 1.5625 0.67188 2.1016zm-68.539-19.578 28.531 12.098c0.007813 0.003906 0.019532 0.003906 0.027344 0.007812 0.042969 0.019531 0.085938 0.03125 0.12891 0.042969 0.015625 0.003906 0.03125 0.007812 0.046875 0.011719 0.054688 0.011719 0.11328 0.015625 0.16797 0.015625s0.11328-0.007813 0.16797-0.015625c0.015625-0.003907 0.03125-0.007813 0.046875-0.011719 0.042968-0.011719 0.085937-0.023438 0.12891-0.039062 0.007812-0.003907 0.019531-0.003907 0.027344-0.007813l28.531-12.102c0.35156-0.14844 0.57812-0.49219 0.57812-0.875v-27.375-0.003906c0-0.070312-0.007813-0.14062-0.023438-0.20703-0.003906-0.011719-0.007812-0.027344-0.011719-0.039063-0.019531-0.066406-0.042968-0.12891-0.074218-0.1875-0.003906-0.011718-0.007813-0.019531-0.015625-0.03125-0.035157-0.0625-0.074219-0.11719-0.12109-0.17187-0.046875-0.050782-0.10156-0.097657-0.16016-0.13672-0.007813-0.003907-0.011719-0.011719-0.015625-0.015625-0.007813-0.003906-0.011719-0.003906-0.015625-0.007813-0.046875-0.03125-0.097657-0.058593-0.14844-0.078125l-28.824-11.902c-0.23437-0.097656-0.5-0.097656-0.73047 0.003907l-10.637 4.4805c-0.003906 0.003906-0.011719 0.003906-0.019531 0.007812l-6.7578 2.8477c-0.007812 0.003906-0.015625 0.007813-0.023437 0.011719l-10.801 4.5547c-0.054687 0.019532-0.10156 0.046876-0.14844 0.078126 0 0-0.003906 0-0.007813 0.003906-0.007812 0.003906-0.011718 0.007812-0.015624 0.015625-0.058594 0.039062-0.10938 0.085937-0.15625 0.13672-0.003907 0-0.007813 0-0.007813 0.003906-0.046875 0.050781-0.085937 0.10938-0.12109 0.17188-0.007812 0.011719-0.011719 0.019531-0.019531 0.03125-0.03125 0.058593-0.054688 0.12109-0.070312 0.18359-0.003907 0.011719-0.007813 0.027344-0.007813 0.039063-0.015625 0.066406-0.027344 0.13672-0.027344 0.20703v27.379c0 0.38281 0.22656 0.72656 0.57812 0.875zm11.199-31.785 26.066 11.055-8.3633 3.5469-26.09-11.066zm6.7695-2.8516 26.938 10.664-5.207 2.2109-26.059-11.051zm22.711 14.523 5.7812-2.4531v8.0273l-5.7812 2.457zm-39.359-6.7031 5.7812 2.4492 20.852 8.8398v25.312l-26.633-11.285zm55.164 25.316-26.633 11.289v-25.312l8.9258-3.7852 0.003906 8.6602c0 0.32031 0.16016 0.61719 0.42578 0.79297 0.15625 0.10547 0.33984 0.15625 0.52344 0.15625 0.125 0 0.25391-0.023438 0.37109-0.074219l7.6836-3.2617c0.35156-0.14844 0.57813-0.49219 0.57813-0.875v-9.4609l3.2031-1.3594 4.918-2.0859zm-27.871-37.621 26.359 10.883-7.5703 3.2109-26.934-10.664z"/>
<text x="0.0" y="117.5" font-size="5.0" font-weight="bold" font-family="Arbeit Regular, Helvetica, Arial-Unicode, Arial, Sans-serif" fill="#000000">Created by Nurfajri Aldi</text><text x="0.0" y="122.5" font-size="5.0" font-weight="bold" font-family="Arbeit Regular, Helvetica, Arial-Unicode, Arial, Sans-serif" fill="#000000">from Noun Project</text></svg>